<svg width="14" height="13" viewBox="0 0 14 13" fill="none" xmlns="http://www.w3.org/2000/svg">
<path d="M12.5553 12.241L7.90215 8.03426C7.53285 8.30135 7.10816 8.5128 6.62808 8.66861C6.148 8.82441 5.63714 8.90231 5.09551 8.90231C3.75374 8.90231 2.61816 8.4822 1.68876 7.64197C0.759373 6.80174 0.294678 5.7751 0.294678 4.56206C0.294678 3.34902 0.759373 2.32238 1.68876 1.48215C2.61816 0.641923 3.75374 0.221809 5.09551 0.221809C6.43728 0.221809 7.57286 0.641923 8.50225 1.48215C9.43164 2.32238 9.89634 3.34902 9.89634 4.56206C9.89634 5.05173 9.81017 5.51358 9.63783 5.9476C9.46549 6.38163 9.23161 6.76557 8.93617 7.09944L13.5893 11.3061L12.5553 12.241ZM5.09551 7.56685C6.01874 7.56685 6.8035 7.27472 7.44976 6.69045C8.09603 6.10619 8.41916 5.39672 8.41916 4.56206C8.41916 3.7274 8.09603 3.01793 7.44976 2.43367C6.8035 1.8494 6.01874 1.55727 5.09551 1.55727C4.17227 1.55727 3.38752 1.8494 2.74125 2.43367C2.09499 3.01793 1.77186 3.7274 1.77186 4.56206C1.77186 5.39672 2.09499 6.10619 2.74125 6.69045C3.38752 7.27472 4.17227 7.56685 5.09551 7.56685Z" fill="#B9B5A6"/>
</svg>
